<?xml version="1.0" encoding="utf-8"?>
<!-- Generator: Adobe Illustrator 16.0.0, SVG Export Plug-In . SVG Version: 6.00 Build 0)  -->
<!DOCTYPE svg PUBLIC "-//W3C//DTD SVG 1.1//EN" "http://www.w3.org/Graphics/SVG/1.1/DTD/svg11.dtd">
<svg version="1.1" xmlns="http://www.w3.org/2000/svg" xmlns:xlink="http://www.w3.org/1999/xlink" x="0px" y="0px" width="1000px"
	 height="1000px" viewBox="0 0 1000 1000" enable-background="new 0 0 1000 1000" xml:space="preserve">
<g id="Layer_4">
</g>
<g id="Layer_1">
	<g id="Layer_3">
	</g>
	<g>
		<g>
			<path d="M667,587.881c-0.578,8.587-9.068,7.33-15.045,7.33c-8.276,0-16.554,0-24.831,0c-27.797,0-55.594,0-83.391,0
				c-58.367,0-116.733,0-175.101,0c-6.378,0-12.756,0-19.134,0c-0.921,0-1.842,0-2.763,0c-5.595,0-7.335-4.855-7.335-9.407
				c0-22.155,0-44.31,0-66.465c0-31.538,0-63.076,0-94.614c0-9.979,0-19.958,0-29.937c0-5.899-0.405-13.306,8.036-13.306
				c44.619,0,89.237,0,133.856,0c55.229,0,110.458,0,165.686,0c4.161,0,8.323,0,12.485,0c8.944,0,7.536,9.779,7.536,15.721
				c0,26.229,0,52.459,0,78.689C667,513.222,667,550.552,667,587.881c0,3.225,5,3.225,5,0c0-49.35,0-98.699,0-148.049
				c0-17.333,1.074-35.049-0.09-52.354c-0.623-9.261-9.299-10.996-16.651-10.996c-7.141,0-14.28,0-21.42,0
				c-59.304,0-118.607,0-177.911,0c-26.999,0-53.999,0-80.998,0c-7.562,0-15.124,0-22.686,0c-6.718,0-13.149,0.108-16.729,7.242
				c-2.331,4.643-1.114,12.304-1.114,17.258c0,11.783,0,23.565,0,35.348c0,32.018,0,64.036,0,96.053c0,18.464,0,36.928,0,55.393
				c0,9.15,7.839,12.436,15.531,12.436c6.599,0,13.198,0,19.796,0c58.646,0,117.293,0,175.939,0c27.575,0,55.15,0,82.726,0
				c8.075,0,16.151,0,24.227,0c4.941,0,10.825,0.74,14.825-2.78c2.929-2.578,4.296-5.688,4.556-9.55
				C672.217,584.66,667.215,584.682,667,587.881z"/>
		</g>
	</g>
	<g>
		<line x1="503.2" y1="491.347" x2="659.67" y2="381.982"/>
		<g>
			<path d="M504.462,493.505c40.685-28.436,81.368-56.872,122.052-85.308c11.473-8.019,22.945-16.038,34.418-24.056
				c2.622-1.833,0.127-6.169-2.523-4.317c-40.685,28.436-81.368,56.872-122.053,85.308c-11.472,8.019-22.944,16.038-34.417,24.056
				C499.317,491.021,501.812,495.357,504.462,493.505L504.462,493.505z"/>
		</g>
	</g>
	<g>
		<line x1="503.2" y1="491.347" x2="346.731" y2="381.982"/>
		<g>
			<path d="M504.462,489.188c-40.684-28.436-81.368-56.872-122.051-85.308c-11.473-8.019-22.945-16.038-34.417-24.056
				c-2.65-1.852-5.145,2.485-2.523,4.317c40.684,28.436,81.368,56.872,122.051,85.308c11.473,8.019,22.945,16.038,34.417,24.056
				C504.588,495.357,507.084,491.021,504.462,489.188L504.462,489.188z"/>
		</g>
	</g>
	<g>
		<g>
			<path d="M457.506,587.011c14.411-3.477,28.824-6.949,43.235-10.422c3.133-0.756,1.804-5.577-1.329-4.822
				c-14.412,3.474-28.824,6.946-43.235,10.422C453.043,582.945,454.373,587.767,457.506,587.011L457.506,587.011z"/>
		</g>
	</g>
	<g>
		<path fill="#F37883" d="M492.832,576.318l-28.311,6.824C486.947,630.702,504.766,606.445,492.832,576.318z"/>
		<g>
			<path d="M492.167,573.907c-9.437,2.275-18.874,4.55-28.311,6.824c-1.672,0.403-2.166,2.271-1.494,3.673
				c4.076,8.502,16.407,34.595,30.24,26.76c11.136-6.307,6.088-26.547,2.64-35.511c-1.145-2.977-5.981-1.685-4.821,1.33
				c2.981,7.749,7.461,22.844,0.011,29.628c-3.028,2.757-7.699-1.154-9.829-3.133c-6.238-5.792-10.301-14.041-13.923-21.598
				c-0.498,1.224-0.996,2.448-1.494,3.673c9.437-2.275,18.874-4.55,28.311-6.824C496.63,577.974,495.301,573.152,492.167,573.907z"
				/>
		</g>
	</g>
	<g>
		<path fill="#FFFFFF" d="M587.848,600.711c-4.377,43.009-37.217,36.455-37.217,36.455s-18.244-7.373-14.596-36.455"/>
		<g>
			<path d="M585.348,600.711c-1.243,11.167-4.778,23.129-14.517,29.777c-5.043,3.443-11.243,4.771-17.278,4.492
				c-0.683-0.031-1.363-0.096-2.041-0.18c0.761,0.094-1.051-0.409,0.303,0.173c-1.575-0.677-3.013-1.716-4.31-2.82
				c-9.04-7.7-10.217-20.384-8.97-31.442c0.361-3.201-4.643-3.166-5,0c-1.395,12.369,0.511,25.682,9.979,34.57
				c3.096,2.906,5.896,4.459,10.039,4.699c7.176,0.416,14.506-1.559,20.438-5.609c11.004-7.512,14.957-21.088,16.356-33.66
				C590.704,597.509,585.7,597.543,585.348,600.711L585.348,600.711z"/>
		</g>
	</g>
	<g>
		<path fill="#FFFFFF" d="M386.848,600.711c4.914,43.009,41.779,36.455,41.779,36.455s20.48-7.373,16.385-36.455"/>
		<g>
			<path d="M384.348,600.711c1.62,12.997,6.254,25.442,17.382,33.124c6.733,4.647,15.354,6.449,23.437,6.153
				c18.425-0.675,24.202-24.669,22.345-39.277c-0.401-3.153-5.406-3.192-5,0c1.455,11.445-0.325,23.147-9.514,30.925
				c-1.062,0.898-2.257,1.647-3.464,2.333c-0.444,0.252-1.922,0.927-1.489,0.756c-0.328,0.13-1.292,0.178-2.483,0.245
				c-6.656,0.379-13.384-0.964-19.242-4.179c-10.921-5.994-15.509-18.342-16.971-30.08
				C388.955,597.555,383.95,597.517,384.348,600.711L384.348,600.711z"/>
		</g>
	</g>
	<g>
		<polygon fill="#F7CB1A" points="528.121,579.66 411.977,623 509.28,623 357.5,697.787 577.097,617.037 515.562,610.594 
			599.303,557.723 		"/>
		<g>
			<path d="M527.456,577.138c-38.714,14.41-77.429,28.819-116.144,43.229c-2.553,0.95-2.298,4.911,0.665,4.911
				c32.435,0,64.869,0,97.304,0c-0.421-1.553-0.841-3.105-1.262-4.658c-44.706,22.061-89.411,44.121-134.117,66.182
				c-5.888,2.905-11.776,5.811-17.664,8.717c-2.528,1.247-0.736,5.548,1.926,4.569c44.214-16.247,88.427-32.494,132.641-48.741
				c28.985-10.651,57.971-21.303,86.956-31.953c2.723-1.001,2.155-4.617-0.665-4.911c-20.512-2.139-41.023-4.277-61.535-6.416
				c0.421,1.553,0.841,3.105,1.262,4.659c27.914-17.638,55.827-35.275,83.741-52.912c2.343-1.48,0.861-5.428-1.927-4.57
				C574.911,562.541,551.184,569.84,527.456,577.138c-3.071,0.945-1.761,5.772,1.33,4.822c23.727-7.299,47.454-14.598,71.182-21.896
				c-0.643-1.523-1.285-3.047-1.927-4.57c-27.914,17.638-55.827,35.275-83.741,52.912c-2.229,1.409-1.149,4.408,1.262,4.659
				c20.512,2.139,41.023,4.277,61.535,6.416c-0.222-1.637-0.443-3.273-0.665-4.911c-44.213,16.247-88.427,32.494-132.641,48.741
				c-28.985,10.651-57.97,21.303-86.956,31.953c0.642,1.523,1.284,3.047,1.926,4.569c44.706-22.061,89.411-44.121,134.117-66.182
				c5.888-2.905,11.776-5.811,17.664-8.717c2.295-1.132,1.119-4.658-1.262-4.658c-32.435,0-64.869,0-97.304,0
				c0.222,1.637,0.443,3.273,0.665,4.911c38.715-14.41,77.43-28.819,116.145-43.229
				C531.779,580.846,530.484,576.011,527.456,577.138z"/>
		</g>
	</g>
	<g>
		<g>
			<path d="M385.329,542.768c13.034,11.393,26.069,22.785,39.104,34.178c2.416,2.112,5.967-1.409,3.535-3.535
				c-13.034-11.393-26.069-22.785-39.104-34.178C386.448,537.12,382.897,540.642,385.329,542.768L385.329,542.768z"/>
		</g>
	</g>
	<g>
		<g>
			<path d="M388.864,576.945c13.035-11.393,26.069-22.785,39.104-34.178c2.432-2.126-1.119-5.647-3.535-3.535
				c-13.035,11.393-26.069,22.785-39.104,34.178C382.897,575.536,386.448,579.058,388.864,576.945L388.864,576.945z"/>
		</g>
	</g>
	<g>
		<g>
			<path d="M589.329,542.768c13.034,11.393,26.069,22.785,39.104,34.178c2.416,2.112,5.968-1.409,3.535-3.535
				c-13.034-11.393-26.069-22.785-39.104-34.178C590.448,537.12,586.896,540.642,589.329,542.768L589.329,542.768z"/>
		</g>
	</g>
	<g>
		<g>
			<path d="M592.864,576.945c13.034-11.393,26.069-22.785,39.104-34.178c2.433-2.126-1.119-5.647-3.535-3.535
				c-13.034,11.393-26.069,22.785-39.104,34.178C586.896,575.536,590.448,579.058,592.864,576.945L592.864,576.945z"/>
		</g>
	</g>
</g>
<g id="Layer_2">
</g>
</svg>
