<?xml version="1.0" encoding="utf-8"?>
<!-- Generator: Adobe Illustrator 16.0.0, SVG Export Plug-In . SVG Version: 6.00 Build 0)  -->
<!DOCTYPE svg PUBLIC "-//W3C//DTD SVG 1.1//EN" "http://www.w3.org/Graphics/SVG/1.1/DTD/svg11.dtd">
<svg version="1.1" id="Layer_1" xmlns="http://www.w3.org/2000/svg" xmlns:xlink="http://www.w3.org/1999/xlink" x="0px" y="0px"
	 width="1000px" height="1000px" viewBox="0 0 1000 1000" enable-background="new 0 0 1000 1000" xml:space="preserve">
<g>
	<g>
		<path d="M664,518.881c-0.578,8.587-9.068,7.33-15.045,7.33c-8.276,0-16.554,0-24.831,0c-27.797,0-55.594,0-83.391,0
			c-58.367,0-116.733,0-175.101,0c-6.378,0-12.756,0-19.134,0c-0.921,0-1.842,0-2.763,0c-5.595,0-7.335-4.855-7.335-9.407
			c0-22.155,0-44.31,0-66.464c0-31.538,0-63.076,0-94.614c0-9.979,0-19.958,0-29.937c0-5.899-0.405-13.306,8.036-13.306
			c44.619,0,89.237,0,133.856,0c55.229,0,110.458,0,165.686,0c4.161,0,8.323,0,12.485,0c8.944,0,7.536,9.78,7.536,15.721
			c0,26.229,0,52.459,0,78.689C664,444.222,664,481.551,664,518.881c0,3.225,5,3.225,5,0c0-49.35,0-98.699,0-148.049
			c0-17.333,1.074-35.049-0.09-52.354c-0.623-9.261-9.299-10.997-16.651-10.997c-7.141,0-14.28,0-21.42,0
			c-59.304,0-118.607,0-177.911,0c-26.999,0-53.999,0-80.998,0c-7.562,0-15.124,0-22.686,0c-6.718,0-13.149,0.108-16.729,7.242
			c-2.33,4.644-1.114,12.304-1.114,17.258c0,11.783,0,23.565,0,35.348c0,32.018,0,64.036,0,96.053c0,18.464,0,36.928,0,55.392
			c0,9.15,7.838,12.436,15.53,12.436c6.599,0,13.198,0,19.796,0c58.646,0,117.293,0,175.939,0c27.575,0,55.15,0,82.726,0
			c8.075,0,16.151,0,24.227,0c4.941,0,10.825,0.74,14.825-2.78c2.929-2.578,4.296-5.688,4.556-9.55
			C669.217,515.66,664.215,515.682,664,518.881z"/>
	</g>
</g>
<g>
	<line x1="514.2" y1="419.347" x2="670.67" y2="309.982"/>
	<g>
		<path d="M515.462,421.505c40.685-28.436,81.368-56.873,122.052-85.309c11.473-8.019,22.945-16.038,34.418-24.056
			c2.622-1.833,0.127-6.169-2.523-4.317c-40.685,28.436-81.368,56.873-122.053,85.309c-11.472,8.019-22.944,16.038-34.417,24.056
			C510.316,419.021,512.812,423.357,515.462,421.505L515.462,421.505z"/>
	</g>
</g>
<g>
	<line x1="514.2" y1="419.347" x2="357.731" y2="309.982"/>
	<g>
		<path d="M515.462,417.188c-40.684-28.436-81.368-56.873-122.051-85.309c-11.473-8.019-22.945-16.038-34.417-24.056
			c-2.65-1.852-5.145,2.485-2.523,4.317c40.684,28.436,81.368,56.873,122.051,85.309c11.473,8.019,22.945,16.038,34.417,24.056
			C515.588,423.357,518.084,419.021,515.462,417.188L515.462,417.188z"/>
	</g>
</g>
<g>
	<path fill="#FFFFFF" d="M592.562,528.711c-3.881,54.321-32.989,46.044-32.989,46.044s-16.171-9.312-12.937-46.044"/>
	<g>
		<path d="M590.062,528.711c-1.222,15.792-6.264,45.712-28.182,43.918c-0.39-0.032-2.005-0.634-1.159-0.103
			c-1.283-0.806-2.826-2.456-3.979-3.976c-8.391-11.049-8.665-26.669-7.605-39.84c0.259-3.216-4.743-3.191-5,0
			c-1.151,14.314-0.429,30.886,8.637,42.822c2.569,3.384,4.902,5.69,9.107,6.096c25.088,2.418,31.771-30.679,33.182-48.918
			C595.312,525.494,590.31,525.518,590.062,528.711L590.062,528.711z"/>
	</g>
</g>
<circle stroke="#000000" stroke-miterlimit="10" cx="500.541" cy="595.52" r="74.618"/>
<line fill="none" stroke="#000000" stroke-width="3" stroke-miterlimit="10" x1="448.356" y1="373.324" x2="351.587" y2="523.497"/>
<line fill="none" stroke="#000000" stroke-width="3" stroke-miterlimit="10" x1="660.459" y1="528.412" x2="563.689" y2="378.24"/>
<g>
	<circle fill="#FFFFFF" cx="392.337" cy="481.315" r="20.862"/>
	<g>
		<path d="M410.699,481.315c-0.332,10.259-8.102,18.03-18.361,18.362c-10.255,0.332-18.047-8.604-18.362-18.362
			c-0.332-10.255,8.605-18.046,18.362-18.361C402.593,462.623,410.384,471.558,410.699,481.315c0.104,3.216,5.104,3.226,5,0
			c-0.421-13.02-10.341-22.94-23.361-23.361c-13.014-0.421-22.961,10.973-23.362,23.361c-0.421,13.015,10.974,22.962,23.362,23.362
			c13.015,0.421,22.96-10.974,23.361-23.362C415.804,478.089,410.803,478.1,410.699,481.315z"/>
	</g>
</g>
<g>
	<ellipse fill="#FFFFFF" cx="615.535" cy="474.56" rx="27.072" ry="27.618"/>
	<g>
		<path d="M640.107,474.56c-0.33,13.72-10.703,24.771-24.572,25.118c-13.867,0.347-24.255-11.923-24.572-25.118
			c-0.33-13.719,11.197-24.785,24.572-25.119C629.402,449.094,639.79,461.365,640.107,474.56c0.077,3.219,5.077,3.226,5,0
			c-0.396-16.471-12.954-29.704-29.572-30.119c-16.616-0.416-29.191,14.274-29.572,30.119
			c-0.396,16.469,13.548,29.718,29.572,30.118c16.615,0.416,29.191-14.274,29.572-30.118
			C645.185,471.333,640.185,471.341,640.107,474.56z"/>
	</g>
</g>
<g>
	<g>
		<path d="M468.506,515.011c14.411-3.477,28.824-6.949,43.236-10.422c3.133-0.756,1.804-5.577-1.33-4.822
			c-14.412,3.473-28.824,6.946-43.235,10.421C464.043,510.944,465.373,515.767,468.506,515.011L468.506,515.011z"/>
	</g>
</g>
<g>
	<path fill="#F37883" d="M503.832,504.318l-28.311,6.824C497.947,558.702,515.766,534.445,503.832,504.318z"/>
	<g>
		<path d="M503.167,501.907c-9.437,2.275-18.873,4.55-28.31,6.824c-1.672,0.403-2.166,2.271-1.494,3.673
			c4.076,8.502,16.407,34.595,30.24,26.76c11.136-6.307,6.088-26.547,2.641-35.511c-1.146-2.977-5.981-1.685-4.822,1.33
			c2.981,7.749,7.462,22.844,0.011,29.628c-3.027,2.757-7.698-1.154-9.828-3.133c-6.238-5.792-10.301-14.041-13.923-21.598
			c-0.498,1.224-0.996,2.448-1.494,3.673c9.437-2.275,18.874-4.55,28.311-6.824C507.63,505.974,506.301,501.152,503.167,501.907z"/>
	</g>
</g>
<g>
	<path fill="#BFBFBF" d="M566.966,512.398l-7.847-8.191c-9.853,0-17.826,13.392-17.826,29.939l9.012,8.192
		c0-16.549,7.973-29.94,17.826-29.94"/>
	<g>
		<path d="M568.733,510.631c-2.527-2.639-5.194-6.732-8.353-8.582c-2.303-1.35-6.281,0.54-8.344,1.629
			c-3.115,1.646-5.443,4.604-7.347,7.479c-2.187,3.306-3.507,7.236-4.5,11.038c-0.812,3.112-2.754,10.315-1.056,13.214
			c1.945,3.321,6.558,6.112,9.402,8.698c1.603,1.457,4.23,0.477,4.268-1.768c0.152-9.19,3.229-26.875,15.326-27.44
			c3.21-0.15,3.225-5.15,0-5c-15.328,0.717-20.121,20.085-20.326,32.44c1.423-0.589,2.845-1.179,4.268-1.768
			c-2.489-2.263-4.979-4.526-7.468-6.789c-0.422-0.384-0.844-0.767-1.266-1.15c0.47,0.427,0.634-2.68,0.703-3.508
			c0.378-4.53,1.702-9.062,3.668-13.145c1.383-2.873,3.374-5.52,5.95-7.417c0.956-0.704,2.013-1.155,3.133-1.526
			c1.489-0.493,0.296-1.335,1.14-0.454c2.422,2.527,4.844,5.056,7.266,7.584C567.432,516.498,570.963,512.958,568.733,510.631
			L568.733,510.631z"/>
	</g>
</g>
<path stroke="#000000" stroke-miterlimit="10" d="M507.649,538.789l12.287-16.825c0,0,18.208-11.696,37.98,8.413
	c19.772,20.108-14.708,35.966-14.708,35.966L507.649,538.789z"/>
<g>
	<path fill="#FFFFFF" d="M399.848,528.711c4.914,43.009,41.779,36.455,41.779,36.455s20.48-7.373,16.385-36.455"/>
	<g>
		<path d="M397.348,528.711c1.62,12.997,6.254,25.442,17.382,33.124c6.733,4.647,15.354,6.449,23.437,6.153
			c18.425-0.675,24.202-24.669,22.345-39.277c-0.401-3.153-5.406-3.192-5,0c1.455,11.445-0.325,23.147-9.514,30.925
			c-1.062,0.898-2.257,1.647-3.464,2.333c-0.444,0.252-1.922,0.927-1.489,0.756c-0.328,0.13-1.292,0.178-2.483,0.245
			c-6.656,0.379-13.384-0.964-19.242-4.179c-10.921-5.994-15.509-18.342-16.971-30.08
			C401.955,525.555,396.95,525.517,397.348,528.711L397.348,528.711z"/>
	</g>
</g>
<text transform="matrix(1 0 0 1 296.9043 174.167)"><tspan x="0" y="0" font-family="'Abel-Regular'" font-size="125">Sorry but </tspan><tspan x="214.172" y="150" font-family="'Abel-Regular'" font-size="125"> </tspan><tspan x="214.172" y="300" font-family="'Abel-Regular'" font-size="125"> </tspan><tspan x="214.172" y="450" font-family="'Abel-Regular'" font-size="125"> </tspan><tspan x="-84.839" y="600" font-family="'Abel-Regular'" font-size="125">your content </tspan><tspan x="-96.191" y="750" font-family="'Abel-Regular'" font-size="125">has exploded</tspan></text>
</svg>
