<?xml version="1.0" encoding="utf-8"?>
<!-- Generator: Adobe Illustrator 16.0.0, SVG Export Plug-In . SVG Version: 6.00 Build 0)  -->
<!DOCTYPE svg PUBLIC "-//W3C//DTD SVG 1.1//EN" "http://www.w3.org/Graphics/SVG/1.1/DTD/svg11.dtd">
<svg version="1.1" id="Layer_1" xmlns="http://www.w3.org/2000/svg" xmlns:xlink="http://www.w3.org/1999/xlink" x="0px" y="0px"
	 width="1000px" height="1000px" viewBox="0 0 1000 1000" enable-background="new 0 0 1000 1000" xml:space="preserve">
<g>
	<g>
		<path d="M664,536.881c-0.578,8.587-9.068,7.33-15.045,7.33c-8.276,0-16.554,0-24.831,0c-27.797,0-55.594,0-83.391,0
			c-58.367,0-116.733,0-175.101,0c-6.378,0-12.756,0-19.134,0c-0.921,0-1.842,0-2.763,0c-5.595,0-7.335-4.855-7.335-9.407
			c0-22.155,0-44.31,0-66.464c0-31.538,0-63.076,0-94.614c0-9.979,0-19.958,0-29.937c0-5.899-0.405-13.306,8.036-13.306
			c44.619,0,89.237,0,133.856,0c55.229,0,110.458,0,165.686,0c4.161,0,8.323,0,12.485,0c8.944,0,7.536,9.779,7.536,15.721
			c0,26.229,0,52.459,0,78.689C664,462.222,664,499.551,664,536.881c0,3.225,5,3.225,5,0c0-49.35,0-98.699,0-148.049
			c0-17.333,1.074-35.049-0.09-52.354c-0.623-9.261-9.299-10.996-16.651-10.996c-7.141,0-14.28,0-21.42,0
			c-59.304,0-118.607,0-177.911,0c-26.999,0-53.999,0-80.998,0c-7.562,0-15.124,0-22.686,0c-6.718,0-13.149,0.108-16.729,7.242
			c-2.331,4.643-1.114,12.304-1.114,17.258c0,11.783,0,23.565,0,35.348c0,32.018,0,64.036,0,96.053c0,18.464,0,36.927,0,55.392
			c0,9.15,7.839,12.436,15.531,12.436c6.599,0,13.198,0,19.796,0c58.646,0,117.293,0,175.939,0c27.575,0,55.15,0,82.726,0
			c8.075,0,16.151,0,24.227,0c4.941,0,10.825,0.74,14.825-2.78c2.929-2.578,4.296-5.688,4.556-9.55
			C669.217,533.66,664.215,533.682,664,536.881z"/>
	</g>
</g>
<g>
	<line x1="500.2" y1="440.347" x2="656.67" y2="330.982"/>
	<g>
		<path d="M501.462,442.505c40.685-28.436,81.368-56.872,122.052-85.308c11.473-8.019,22.945-16.038,34.418-24.056
			c2.622-1.833,0.127-6.169-2.523-4.317c-40.685,28.436-81.368,56.872-122.053,85.308c-11.472,8.019-22.944,16.038-34.417,24.056
			C496.317,440.021,498.812,444.357,501.462,442.505L501.462,442.505z"/>
	</g>
</g>
<g>
	<line x1="500.2" y1="440.347" x2="343.731" y2="330.982"/>
	<g>
		<path d="M501.462,438.188c-40.684-28.436-81.368-56.872-122.051-85.308c-11.473-8.019-22.945-16.038-34.417-24.056
			c-2.65-1.852-5.145,2.485-2.523,4.317c40.684,28.436,81.368,56.872,122.051,85.308c11.473,8.019,22.945,16.038,34.417,24.056
			C501.588,444.357,504.084,440.021,501.462,438.188L501.462,438.188z"/>
	</g>
</g>
<g>
	<g>
		<path d="M454.506,536.011c14.411-3.477,28.824-6.949,43.235-10.422c3.134-0.756,1.804-5.577-1.329-4.822
			c-14.412,3.474-28.824,6.946-43.235,10.422C450.043,531.945,451.373,536.767,454.506,536.011L454.506,536.011z"/>
	</g>
</g>
<g>
	<path fill="#F37883" d="M489.832,525.318l-28.311,6.824C483.947,579.702,501.766,555.445,489.832,525.318z"/>
	<g>
		<path d="M489.167,522.907c-9.437,2.275-18.874,4.55-28.311,6.824c-1.672,0.403-2.166,2.271-1.494,3.673
			c4.076,8.502,16.407,34.595,30.24,26.76c11.136-6.307,6.088-26.547,2.64-35.511c-1.145-2.977-5.981-1.685-4.821,1.33
			c2.981,7.749,7.461,22.844,0.011,29.628c-3.028,2.757-7.699-1.154-9.829-3.133c-6.238-5.792-10.301-14.041-13.923-21.598
			c-0.498,1.224-0.996,2.448-1.494,3.673c9.437-2.275,18.874-4.55,28.311-6.824C493.63,526.974,492.301,522.152,489.167,522.907z"/>
	</g>
</g>
<g>
	<path fill="#FFFFFF" d="M584.848,549.711c-4.377,43.009-37.217,36.455-37.217,36.455s-18.244-7.373-14.596-36.455"/>
	<g>
		<path d="M582.348,549.711c-1.243,11.167-4.778,23.129-14.517,29.777c-5.043,3.443-11.243,4.771-17.278,4.492
			c-0.683-0.031-1.363-0.096-2.041-0.18c0.761,0.094-1.051-0.409,0.303,0.173c-1.575-0.677-3.013-1.716-4.31-2.82
			c-9.04-7.7-10.217-20.384-8.97-31.442c0.361-3.201-4.643-3.166-5,0c-1.395,12.369,0.511,25.682,9.979,34.57
			c3.096,2.906,5.896,4.459,10.039,4.699c7.176,0.416,14.506-1.559,20.438-5.609c11.004-7.512,14.957-21.088,16.356-33.66
			C587.704,546.509,582.7,546.543,582.348,549.711L582.348,549.711z"/>
	</g>
</g>
<g>
	<path fill="#FFFFFF" d="M383.848,549.711c4.914,43.009,41.779,36.455,41.779,36.455s20.48-7.373,16.385-36.455"/>
	<g>
		<path d="M381.348,549.711c1.62,12.997,6.254,25.442,17.382,33.124c6.733,4.647,15.354,6.449,23.437,6.153
			c18.425-0.675,24.202-24.669,22.345-39.277c-0.401-3.153-5.406-3.192-5,0c1.455,11.445-0.325,23.147-9.514,30.925
			c-1.062,0.898-2.257,1.647-3.464,2.333c-0.444,0.252-1.922,0.927-1.489,0.756c-0.328,0.13-1.292,0.178-2.483,0.245
			c-6.656,0.379-13.384-0.964-19.242-4.179c-10.921-5.994-15.509-18.342-16.971-30.08
			C385.955,546.555,380.95,546.517,381.348,549.711L381.348,549.711z"/>
	</g>
</g>
<g>
	<polygon fill="#F7CB1A" points="525.121,528.66 408.977,572 506.28,572 354.5,646.787 574.097,566.037 512.562,559.594 
		596.303,506.723 	"/>
	<g>
		<path d="M524.456,526.138c-38.714,14.41-77.429,28.819-116.144,43.229c-2.553,0.95-2.298,4.911,0.665,4.911
			c32.435,0,64.869,0,97.304,0c-0.421-1.553-0.841-3.105-1.262-4.658c-44.706,22.061-89.411,44.121-134.117,66.182
			c-5.888,2.905-11.776,5.811-17.664,8.717c-2.528,1.247-0.736,5.548,1.926,4.569c44.214-16.247,88.427-32.494,132.641-48.741
			c28.985-10.651,57.971-21.303,86.956-31.953c2.723-1.001,2.155-4.617-0.665-4.911c-20.512-2.139-41.023-4.277-61.535-6.416
			c0.421,1.553,0.841,3.105,1.262,4.659c27.914-17.638,55.827-35.275,83.741-52.912c2.343-1.48,0.861-5.428-1.927-4.57
			C571.911,511.541,548.184,518.84,524.456,526.138c-3.071,0.945-1.761,5.772,1.33,4.822c23.727-7.299,47.454-14.598,71.182-21.896
			c-0.643-1.523-1.285-3.047-1.927-4.57c-27.914,17.638-55.827,35.275-83.741,52.912c-2.229,1.409-1.149,4.408,1.262,4.659
			c20.512,2.139,41.023,4.277,61.535,6.416c-0.222-1.637-0.443-3.273-0.665-4.911c-44.213,16.247-88.427,32.494-132.641,48.741
			c-28.985,10.651-57.97,21.303-86.956,31.953c0.642,1.523,1.284,3.047,1.926,4.569c44.706-22.061,89.411-44.121,134.117-66.182
			c5.888-2.905,11.776-5.811,17.664-8.717c2.295-1.132,1.119-4.658-1.262-4.658c-32.435,0-64.869,0-97.304,0
			c0.222,1.637,0.443,3.273,0.665,4.911c38.715-14.41,77.43-28.819,116.145-43.229C528.779,529.846,527.484,525.011,524.456,526.138
			z"/>
	</g>
</g>
<g>
	<g>
		<path d="M382.329,491.768c13.034,11.393,26.069,22.785,39.104,34.178c2.416,2.112,5.967-1.409,3.535-3.535
			c-13.034-11.393-26.069-22.785-39.104-34.178C383.448,486.12,379.897,489.642,382.329,491.768L382.329,491.768z"/>
	</g>
</g>
<g>
	<g>
		<path d="M385.864,525.945c13.035-11.393,26.069-22.785,39.104-34.178c2.432-2.125-1.119-5.647-3.535-3.535
			c-13.035,11.393-26.069,22.785-39.104,34.178C379.897,524.536,383.448,528.058,385.864,525.945L385.864,525.945z"/>
	</g>
</g>
<g>
	<g>
		<path d="M586.329,491.768c13.034,11.393,26.069,22.785,39.104,34.178c2.416,2.112,5.968-1.409,3.535-3.535
			c-13.034-11.393-26.069-22.785-39.104-34.178C587.448,486.12,583.896,489.642,586.329,491.768L586.329,491.768z"/>
	</g>
</g>
<g>
	<g>
		<path d="M589.864,525.945c13.034-11.393,26.069-22.785,39.104-34.178c2.433-2.125-1.119-5.647-3.535-3.535
			c-13.034,11.393-26.069,22.785-39.104,34.178C583.896,524.536,587.448,528.058,589.864,525.945L589.864,525.945z"/>
	</g>
</g>
<text transform="matrix(1 0 0 1 272.0752 178.6113)"><tspan x="0" y="0" font-family="'MyriadPro-Regular'" font-size="125">Sorry but</tspan><tspan x="-78.186" y="600" font-family="'MyriadPro-Regular'" font-size="125">the content </tspan><tspan x="-204.121" y="750" font-family="'MyriadPro-Regular'" font-size="125">has been zapped</tspan></text>
</svg>
